<svg xmlns="http://www.w3.org/2000/svg" id="Group_959" width="18.552" height="35.506" data-name="Group 959" viewBox="0 0 18.552 35.506">
    <defs>
        <style>
            .cls-1,.cls-2{fill:#ddd}.cls-2{opacity:.37}
        </style>
    </defs>
    <path id="battery" d="M30.544 2.367h-3.789V0H19.8v2.367h-3.792A2.032 2.032 0 0 0 14 4.417v29.039a2.032 2.032 0 0 0 2.008 2.05h14.536a2.032 2.032 0 0 0 2.008-2.05V4.417a2.032 2.032 0 0 0-2.008-2.05zM15.16 11.243h16.233v7.1H15.16zm0 8.285h16.233v7.1H15.16zm5.8-18.345h4.64v1.184h-4.643zm-4.952 2.368h14.536a.858.858 0 0 1 .849.866v5.643H15.16V4.417a.858.858 0 0 1 .848-.866zm14.536 30.771H16.008a.858.858 0 0 1-.849-.866v-5.643h16.234v5.643a.858.858 0 0 1-.849.866z" class="cls-1" transform="translate(-14)"/>
    <path id="Path_729" d="M8276.175-6107.626h16.525v-17.233h-16.521z" class="cls-2" data-name="Path 729" transform="translate(-8275.147 6142.286)"/>
</svg>
