<svg xmlns="http://www.w3.org/2000/svg" width="39" height="34" viewBox="0 0 39 34">
    <defs>
        <style>
            .cls-1{fill:#ddd}
        </style>
    </defs>
    <path id="Icon" d="M404 2882h-18a2 2 0 0 1-2-2v-10h-6a2 2 0 0 1-2-2v-11a2 2 0 0 1 2-2h6v-5a2 2 0 0 1 2-2h18a2 2 0 0 1 2 2v5h7a2.027 2.027 0 0 1 2 2v18a2.027 2.027 0 0 1-2 2h-7v3a2 2 0 0 1-2 2zm-18-12v10h18v-30h-18v5h3a2 2 0 0 1 2 2v11a2 2 0 0 1-2 2zm20-13v18h7v-18zm-28 0v11h11v-11z" class="cls-1" transform="translate(-376 -2848)"/>
</svg>
