<svg xmlns="http://www.w3.org/2000/svg" width="32" height="35" viewBox="0 0 32 35">
    <defs>
        <style>
            .cls-1{fill:#ddd}
        </style>
    </defs>
    <path id="Icon" d="M383 3049a.991.991 0 0 0-1 1v6a1 1 0 0 0 2 0v-6a.991.991 0 0 0-1-1zm5-15a1 1 0 0 0-1 1v21a1 1 0 0 0 2 0v-21a1 1 0 0 0-1-1zm5 9a.99.99 0 0 0-1 1v12a1 1 0 0 0 2 0v-12a.99.99 0 0 0-1-1zm5-21a1 1 0 0 0-1 1v33a1 1 0 0 0 2 0v-33a1 1 0 0 0-1-1zm5 6a1 1 0 0 0-1 1v27a1 1 0 0 0 2 0v-27a1 1 0 0 0-1-1zm5-6a1 1 0 0 0-1 1v33a1 1 0 0 0 2 0v-33a1 1 0 0 0-1-1zm5 11a1 1 0 0 0-1 1v22a1 1 0 0 0 2 0v-22a1 1 0 0 0-1-1z" class="cls-1" transform="translate(-382 -3022)"/>
</svg>
