<svg xmlns="http://www.w3.org/2000/svg" width="39" height="29" viewBox="0 0 39 29">
    <defs>
        <style>
            .cls-1{fill:#ddd}
        </style>
    </defs>
    <path id="Icon" d="M1065 2875.453h-4a1 1 0 0 0-1 1v2.734l-5.627-3.576a1.011 1.011 0 0 0-.537-.156h-7.711v-4.988h5.75a1 1 0 0 0 1-1v-6.491H1065zm-23.836-6.984a1.01 1.01 0 0 0-.537.156L1035 2872.2v-2.733a1 1 0 0 0-1-1h-4V2855h20.875v13.474zm24.836-7.489h-13.125V2854a1 1 0 0 0-1-1H1029a1 1 0 0 0-1 1v15.469a1 1 0 0 0 1 1h4v3.555a1 1 0 0 0 1.537.841l6.918-4.4h2.67v5.986a1 1 0 0 0 1 1h8.42l6.918 4.4a1 1 0 0 0 .537.156 1.008 1.008 0 0 0 .481-.123 1 1 0 0 0 .519-.884v-3.554h4a1 1 0 0 0 1-1v-14.472a1 1 0 0 0-1-1z" class="cls-1" transform="translate(-1028 -2853)"/>
</svg>
