<svg xmlns="http://www.w3.org/2000/svg" width="34" height="34" viewBox="0 0 34 34">
    <defs>
        <style>
            .cls-1{fill:#ddd}
        </style>
    </defs>
    <path id="Icon" d="M1053.186 3048.12a26.331 26.331 0 0 0 1.283-7.12h5.48a14.915 14.915 0 0 1-3.7 8.887 19.594 19.594 0 0 0-3.066-1.767zm-.705 1.881a17.573 17.573 0 0 1 2.333 1.316 14.993 14.993 0 0 1-4.487 2.688 23.47 23.47 0 0 0 2.154-4zm-14.736-.111a23.378 23.378 0 0 0 2.287 4.247 15 15 0 0 1-4.847-2.82 17.7 17.7 0 0 1 2.56-1.427zm-.091-19.828a17.545 17.545 0 0 1-2.465-1.382 14.994 14.994 0 0 1 4.64-2.742 23.218 23.218 0 0 0-2.175 4.124zm14.92-.109a23.226 23.226 0 0 0-2.046-3.884 15 15 0 0 1 4.282 2.61 17.689 17.689 0 0 1-2.236 1.274zm-6.592 9.047v-5.372a19.534 19.534 0 0 0 5.4-1.027 24.36 24.36 0 0 1 1.092 6.4zm0 2h6.487a24.324 24.324 0 0 1-1.139 6.37 19.556 19.556 0 0 0-5.348-1zm-2 0v5.375a19.528 19.528 0 0 0-5.063.921 24.329 24.329 0 0 1-1.116-6.3zm0-2h-6.189a24.341 24.341 0 0 1 1.065-6.31 19.571 19.571 0 0 0 5.124.936zm15.967 0h-5.469a26.256 26.256 0 0 0-1.217-7.162 19.774 19.774 0 0 0 2.99-1.723 14.915 14.915 0 0 1 3.7 8.885zm-12.537-13.787a20.788 20.788 0 0 1 3.3 5.507 17.569 17.569 0 0 1-4.726.908v-6.578q.726.047 1.43.163zm-3.43-.161v6.574a17.558 17.558 0 0 1-4.451-.823 20.83 20.83 0 0 1 3.366-5.638c.358-.05.719-.089 1.085-.113zm-10.234 5.062a19.588 19.588 0 0 0 3.226 1.838 26.322 26.322 0 0 0-1.182 7.048h-5.742a14.918 14.918 0 0 1 3.7-8.886zm-3.7 10.886h5.754a26.3 26.3 0 0 0 1.246 7 19.54 19.54 0 0 0-3.3 1.882 14.922 14.922 0 0 1-3.7-8.887zm13.059 13.868a20.64 20.64 0 0 1-3.5-5.692 17.569 17.569 0 0 1 4.373-.8v6.574c-.293-.02-.584-.045-.873-.081zm2.873.082v-6.577a17.546 17.546 0 0 1 4.651.876 20.64 20.64 0 0 1-3.431 5.571q-.6.09-1.22.13zm11.281-3.2a16.974 16.974 0 0 0-9.232-28.469h-.026a16.981 16.981 0 0 0-15.236 28.509c.011.016.013.035.025.051a.88.88 0 0 0 .1.086 16.985 16.985 0 0 0 24.174.042.933.933 0 0 0 .148-.12.837.837 0 0 0 .047-.095z" class="cls-1" transform="translate(-1028 -3023)"/>
</svg>
